<?xml version="1.0" encoding="utf-8"?>
<!-- Generator: Adobe Illustrator 19.0.0, SVG Export Plug-In . SVG Version: 6.00 Build 0)  -->
<svg version="1.1" id="Capa_1" focusable="false" xmlns="http://www.w3.org/2000/svg" xmlns:xlink="http://www.w3.org/1999/xlink"
	 x="0px" y="0px" viewBox="-351 25 512 512" style="enable-background:new -351 25 512 512;" xml:space="preserve">
<style type="text/css">
	.st0{fill:#FFFFFF;}
</style>
<path class="st0" d="M-10,195.7c47.1,0,85.4-38.2,85.4-85.3S37.1,25-10,25h-170.7c-47.1,0-85.3,38.2-85.3,85.3s38.2,85.3,85.3,85.3
	c-47.1,0-85.3,38.2-85.3,85.4c0,47.1,38.2,85.3,85.3,85.3c-47.1,0-85.4,38.2-85.4,85.3c0,47.1,38.2,85.4,85.3,85.4
	c47.1,0,85.4-38.2,85.4-85.3v-256L-10,195.7z M-10,195.7c-47.1,0-85.3,38.2-85.3,85.3s38.2,85.3,85.3,85.3s85.3-38.2,85.3-85.3l0,0
	C75.3,233.9,37.1,195.7-10,195.7z"/>
</svg>
