<?xml version="1.0" encoding="utf-8"?>
<!-- Generator: Adobe Illustrator 19.0.0, SVG Export Plug-In . SVG Version: 6.00 Build 0)  -->
<svg version="1.1" id="Capa_1" focusable="false" xmlns="http://www.w3.org/2000/svg" xmlns:xlink="http://www.w3.org/1999/xlink"
	 x="0px" y="0px" viewBox="-159 -39 640 640" style="enable-background:new -159 -39 640 640;" xml:space="preserve">
<style type="text/css">
	.st0{fill:#FFFFFF;}
</style>
<path class="st0" d="M161,129.5c171.4,0,303.2,72.2,303.2,151.5S332.3,432.5,161,432.5c-171.4,0-303.2-72.2-303.2-151.5
	S-10.3,129.5,161,129.5 M161,112.7c-176.7,0-320,75.3-320,168.3s143.3,168.3,320,168.3S481,374,481,281S337.7,112.7,161,112.7z
	 M59.2,267.5c-7.9,40.5-35.8,36.3-70.1,36.3l13.7-70.6C40.8,233.2,66.6,229.1,59.2,267.5L59.2,267.5z M-61.6,375.3h36.7l8.7-44.8
	c41.1,0,66.6,3,90.2-19.1c26.1-24,32.9-66.7,14.3-88.1c-9.7-11.2-25.3-16.7-46.5-16.7h-70.7L-61.6,375.3z M124.1,161.7h36.5
	l-8.7,44.8c31.5,0,60.7-2.3,74.8,10.7c14.8,13.6,7.7,31-8.3,113.1h-37c15.4-79.4,18.3-86,12.7-92c-5.4-5.8-17.7-4.6-47.4-4.6
	l-18.8,96.6H91.4L124.1,161.7L124.1,161.7z M346,267.5c-8,41.1-36.7,36.3-70.1,36.3l13.7-70.6C327.8,233.2,353.4,229.1,346,267.5
	L346,267.5z M225.2,375.3H262l8.7-44.8c43.2,0,67.1,2.5,90.2-19.1c26.1-24,32.9-66.7,14.3-88.1c-9.7-11.2-25.3-16.7-46.5-16.7H258
	L225.2,375.3z"/>
</svg>
