<?xml version="1.0" encoding="utf-8"?>
<!-- Generator: Adobe Illustrator 19.0.0, SVG Export Plug-In . SVG Version: 6.00 Build 0)  -->
<svg version="1.1" id="Capa_1" focusable="false" xmlns="http://www.w3.org/2000/svg" xmlns:xlink="http://www.w3.org/1999/xlink"
	 x="0px" y="0px" viewBox="-223 25 512 512" style="enable-background:new -223 25 512 512;" xml:space="preserve">
<style type="text/css">
	.st0{fill:#FFFFFF;}
</style>
<path class="st0" d="M33,25c-141.1,0-256,114.8-256,256c0,141.1,114.9,256,256,256s256-114.9,256-256C289,139.8,174.1,25,33,25z
	 M-197.2,281c0-33.3,7.1-65,19.9-93.6l109.8,300.8C-144.2,450.8-197.2,372-197.2,281z M33,511.2c-22.6,0-44.4-3.3-65-9.4L37,301.1
	L107.7,495c0.5,1.1,1,2.2,1.7,3.2C85.5,506.5,59.8,511.2,33,511.2z M64.7,173.1C78.5,172.4,91,171,91,171c12.4-1.4,10.9-19.7-1.4-19
	c0,0-37.3,2.9-61.3,2.9c-22.6,0-60.6-2.9-60.6-2.9c-12.4-0.7-13.8,18.3-1.4,19c0,0,11.8,1.4,24.2,2.2l35.8,98.3l-50.4,151
	L-108,173.1c13.8-0.7,26.3-2.2,26.3-2.2c12.4-1.4,10.9-19.7-1.4-19c0,0-37.3,2.9-61.3,2.9c-4.3,0-9.4-0.1-14.9-0.3
	C-118.1,92.1-47.4,50.8,33,50.8c59.9,0,114.5,22.9,155.5,60.4c-1-0.1-2-0.2-3-0.2c-22.6,0-38.6,19.7-38.6,40.9c0,19,10.9,35,22.6,54
	c8.8,15.3,19,35,19,63.5c0,19.7-7.5,42.5-17.5,74.4L148,420.5L64.7,173.1L64.7,173.1z M148.7,479.9L219,276.7
	c13.1-32.8,17.5-59,17.5-82.5c0-8.5-0.5-16.3-1.5-23.6c18,32.8,28.2,70.4,28.2,110.5C263.2,366,217.2,440.1,148.7,479.9z"/>
</svg>
